<?xml version="1.0" standalone="no"?>
<!DOCTYPE svg PUBLIC "-//W3C//DTD SVG 20010904//EN"
 "http://www.w3.org/TR/2001/REC-SVG-20010904/DTD/svg10.dtd">
<svg version="1.0" xmlns="http://www.w3.org/2000/svg"
 width="256.000000pt" height="256.000000pt" viewBox="0 0 256.000000 256.000000"
 preserveAspectRatio="xMidYMid meet">
<metadata>
Created by potrace 1.11, written by Peter Selinger 2001-2013
</metadata>
<g transform="translate(0.000000,256.000000) scale(0.100000,-0.100000)"
fill="#000000" stroke="none">
<path d="M997 1680 c-4 -8 -33 -123 -66 -255 -33 -132 -72 -280 -85 -330 -14
-49 -24 -90 -22 -92 17 -17 132 369 176 595 12 59 10 113 -3 82z"/>
<path d="M2478 1328 c13 -358 -104 -657 -352 -904 -150 -149 -280 -229 -487
-298 -123 -41 -300 -62 -459 -53 -65 3 -82 2 -55 -3 70 -15 336 -11 425 6 279
53 549 226 724 464 94 128 177 325 207 490 15 83 16 343 1 400 -6 23 -7 -11
-4 -102z"/>
</g>
</svg>
